<svg width="200" height="200" viewBox="0 0 200 200" fill="none" xmlns="http://www.w3.org/2000/svg">
  <g transform="translate(40, 40)">
    <path d="M60 0C26.863 0 0 26.863 0 60C0 93.137 26.863 120 60 120C93.137 120 120 93.137 120 60C120 26.863 93.137 0 60 0ZM80 70H65V85C65 87.761 62.761 90 60 90C57.239 90 55 87.761 55 85V70H40C37.239 70 35 67.761 35 65C35 62.239 37.239 60 40 60H55V45C55 42.239 57.239 40 60 40C62.761 40 65 42.239 65 45V60H80C82.761 60 85 62.239 85 65C85 67.761 82.761 70 80 70Z" fill="#6D1A36"/>
    <path d="M90 30C90 46.569 76.569 60 60 60C43.431 60 30 46.569 30 30C30 13.431 43.431 0 60 0C76.569 0 90 13.431 90 30Z" fill="#FF6B81"/>
  </g>
</svg>